# xmcd
#
# Track frame offsets:
# 150
# 18314
# 48668
# 58880
# 87728
# 105857
# 121233
# 130704
# 154624
# 182277
# 199983
# 215193
# 235254
# 252382
# 269418
# 293520
# 313643
# 328684
#
# Disc length: 4570 seconds
#
# Revision: 0
# Processed by: cddbd v1.5.1PL0 Copyright (c) Steve Scherf et al.
# Submitted via: Audion 3.0.2 (http://www.panic.com/audion/)
#
DISCID=0611d812
DTITLE=Everything but the girl - Varios
DYEAR=1900
DGENRE=
TTITLE0=I always was your girl
TTITLE1=Funk for you
TTITLE2=Another bridge
TTITLE3=Before today
TTITLE4=Driving
TTITLE5=Love
TTITLE6=Disenchanted
TTITLE7=Stars seem to sleep
TTITLE8=Blame
TTITLE9=Corcovado
TTITLE10=Fascination
TTITLE11=I don´t understand anything
TTITLE12=Old friends
TTITLE13=Tracy in my room
TTITLE14=Single
TTITLE15=The tree knows everything
TTITLE16=Almost blue
TTITLE17=Apron String
EXTD=
EXTT0=
EXTT1=
EXTT2=
EXTT3=
EXTT4=
EXTT5=
EXTT6=
EXTT7=
EXTT8=
EXTT9=
EXTT10=
EXTT11=
EXTT12=
EXTT13=
EXTT14=
EXTT15=
EXTT16=
EXTT17=
PLAYORDER=
